HIERARCHY
ROOT root
{
	OFFSET 0.000000 0.000000 0.000000
	CHANNELS 6 Xposition Yposition Zposition Zrotation Yrotation Xrotation
	JOINT lhip
	{
		OFFSET 0.058581 -0.082280 -0.017664
		CHANNELS 3 Zrotation Yrotation Xrotation
		JOINT lknee
		{
			OFFSET 0.043451 -0.386469 0.008037
			CHANNELS 3 Zrotation Yrotation Xrotation
			JOINT lankle
			{
				OFFSET -0.014790 -0.426874 -0.037428
				CHANNELS 3 Zrotation Yrotation Xrotation
				JOINT ltoe
				{
					OFFSET 0.041054 -0.060286 0.122042
					CHANNELS 3 Zrotation Yrotation Xrotation
					End Site
					{
						OFFSET 0.000000 0.000000 0.000000
					}
				}
			}
		}
	}
	JOINT rhip
	{
		OFFSET -0.060310 -0.090513 -0.013543
		CHANNELS 3 Zrotation Yrotation Xrotation
		JOINT rknee
		{
			OFFSET -0.043257 -0.383688 -0.004843
			CHANNELS 3 Zrotation Yrotation Xrotation
			JOINT rankle
			{
				OFFSET 0.019056 -0.420046 -0.034562
				CHANNELS 3 Zrotation Yrotation Xrotation
				JOINT rtoe
				{
					OFFSET -0.034840 -0.062106 0.130323
					CHANNELS 3 Zrotation Yrotation Xrotation
					End Site
					{
						OFFSET 0.000000 0.000000 0.000000
					}
				}
			}
		}
	}
	JOINT lowerback
	{
		OFFSET 0.004439 0.124404 -0.038385
		CHANNELS 3 Zrotation Yrotation Xrotation
		JOINT upperback
		{
			OFFSET 0.004488 0.137956 0.026820
			CHANNELS 3 Zrotation Yrotation Xrotation
			JOINT chest
			{
				OFFSET -0.002265 0.056032 0.002855
				CHANNELS 3 Zrotation Yrotation Xrotation
				JOINT lowerneck
				{
					OFFSET -0.013390 0.211636 -0.033468
					CHANNELS 3 Zrotation Yrotation Xrotation
					JOINT upperneck
					{
						OFFSET 0.010113 0.088937 0.050410
						CHANNELS 3 Zrotation Yrotation Xrotation
						End Site
						{
							OFFSET 0.000000 0.000000 0.000000
						}
					}
				}
				JOINT lclavicle
				{
					OFFSET 0.071702 0.114000 -0.018898
					CHANNELS 3 Zrotation Yrotation Xrotation
					JOINT lshoulder
					{
						OFFSET 0.122921 0.045205 -0.019046
						CHANNELS 3 Zrotation Yrotation Xrotation
						JOINT lelbow
						{
							OFFSET 0.255332 -0.015649 -0.022946
							CHANNELS 3 Zrotation Yrotation Xrotation
							JOINT lwrist
							{
								OFFSET 0.265709 0.012698 -0.007375
								CHANNELS 3 Zrotation Yrotation Xrotation
								End Site
								{
									OFFSET 0.000000 0.000000 0.000000
								}
							}
						}
					}
				}
				JOINT rclavicle
				{
					OFFSET -0.082954 0.112472 -0.023707
					CHANNELS 3 Zrotation Yrotation Xrotation
					JOINT rshoulder
					{
						OFFSET -0.113228 0.046853 -0.008472
						CHANNELS 3 Zrotation Yrotation Xrotation
						JOINT relbow
						{
							OFFSET -0.260127 -0.014369 -0.031269
							CHANNELS 3 Zrotation Yrotation Xrotation
							JOINT rwrist
							{
								OFFSET -0.269108 0.006794 -0.006027
								CHANNELS 3 Zrotation Yrotation Xrotation
								End Site
								{
									OFFSET 0.000000 0.000000 0.000000
								}
							}
						}
					}
				}
			}
		}
	}
}
MOTION
Frames: 10
Frame Time: 0.033333
-0.306730 0.121056 1.004552 -6.383425 -1.549869 82.957691 -1.493319 -1.811298 -5.130622 -6.814491 1.538766 6.969033 2.100263 9.142534 -12.378486 0.000000 -0.000000 0.000000 -0.184443 -3.454437 11.082848 0.299607 3.326938 27.286851 3.211245 -5.639554 -23.520413 0.000000 -0.000000 0.000000 -2.012057 3.318784 1.630380 0.685269 -3.702217 4.193547 -1.001333 -1.013598 1.017105 3.623208 4.783819 -1.175470 1.338300 1.033960 13.585372 -28.496033 0.527432 5.297491 -58.292139 -4.079003 9.928692 14.989073 -30.813694 -3.201064 2.169284 -4.515919 -13.857539 26.771013 2.822395 5.640599 56.956330 2.996460 14.870547 -13.222641 28.941294 0.188966 9.145277 6.371296 -13.573591 
-0.310447 0.143517 1.004363 -6.764005 -1.326794 82.582289 -0.839525 -1.639906 -5.965997 -6.420080 2.232840 6.606934 1.200721 8.716536 -10.256085 0.000000 -0.000000 0.000000 0.413815 -4.226679 12.278200 -0.139718 3.004062 23.066397 1.859639 -6.003050 -24.700122 0.000000 -0.000000 0.000000 -1.536163 3.695900 2.110078 0.512482 -3.541203 4.225823 -0.879147 -0.846434 0.883934 3.412564 4.867029 -1.071691 1.557709 0.854532 13.681388 -28.478812 0.501559 5.316865 -58.165979 -3.947107 9.806724 15.182588 -31.591105 -3.084379 1.983018 -4.602581 -13.990542 26.570805 3.056200 5.971947 56.824464 3.120834 14.525511 -13.071725 29.381728 0.655592 8.839236 6.495727 -13.842034 
-0.313816 0.166792 1.004345 -6.807400 -1.186762 82.180232 -0.424336 -1.784061 -6.757460 -5.955850 2.617360 6.104620 0.619686 8.268893 -7.068033 0.000000 -0.000000 0.000000 1.090338 -4.097952 12.871646 -0.143198 2.575338 19.933412 0.592337 -6.565831 -25.292195 0.000000 -0.000000 0.000000 -1.239598 3.768928 2.731552 0.423351 -3.408187 4.167917 -0.761195 -0.773822 0.789153 3.269193 5.052540 -1.026840 1.707553 0.812459 13.764669 -28.506879 0.463851 5.297314 -58.109947 -3.910907 9.833653 15.347337 -31.705441 -3.093700 1.761464 -4.683653 -13.843816 26.352739 3.243927 6.180461 56.736855 3.235965 14.411276 -12.965010 29.624845 0.925871 8.377213 6.574317 -14.199082 
-0.317025 0.191008 1.004172 -6.726830 -1.033709 81.930486 0.143962 -1.805421 -7.772662 -5.708369 3.036255 5.592567 -0.251415 7.656816 -3.914152 0.000000 -0.000000 0.000000 1.607375 -3.919682 12.565782 0.122121 2.342597 18.098569 -0.537608 -6.635492 -25.648583 0.000000 -0.000000 0.000000 -1.011818 3.758383 3.256151 0.426544 -3.382143 4.179937 -0.672363 -0.769837 0.663019 3.143611 5.342599 -1.082945 1.836992 0.749327 13.798541 -28.542602 0.357414 5.241852 -58.158127 -3.870856 9.881974 15.467927 -31.371358 -3.121877 1.517430 -4.674572 -13.604303 26.157537 3.378658 6.359717 56.634287 3.438209 14.279734 -12.905676 29.807480 1.193342 8.128356 6.617121 -14.487580 
-0.319800 0.215933 1.004271 -6.559530 -0.872016 81.688341 0.952287 -1.519272 -8.826046 -5.835635 3.372825 5.075972 -1.829761 6.975465 -1.199952 0.000000 -0.000000 0.000000 1.971271 -3.912045 11.669750 0.537135 1.859821 17.234591 -1.414782 -6.411344 -25.782807 0.000000 -0.000000 0.000000 -0.785894 3.697998 3.978014 0.474500 -3.419614 4.131925 -0.614103 -0.835750 0.472992 3.050399 5.635956 -1.272488 1.953619 0.573169 13.833699 -28.736574 0.173943 5.174962 -58.079846 -3.779976 9.893533 15.397169 -30.808808 -3.113707 1.353646 -4.658531 -13.231029 26.097112 3.450530 6.472047 56.380390 3.655181 14.061774 -12.781989 29.940535 1.497979 7.927029 6.670203 -14.656369 
-0.321982 0.240705 1.004977 -6.178400 -0.706855 81.297328 1.867663 -1.046385 -9.679311 -6.198301 3.469404 4.598259 -4.124593 6.363640 0.999717 0.000000 -0.000000 0.000000 2.463882 -3.817371 10.802544 0.792683 1.001133 16.592177 -2.163947 -6.421559 -25.550466 0.000000 -0.000000 0.000000 -0.601552 3.502146 4.952536 0.544684 -3.554741 4.039968 -0.530271 -0.929701 0.250390 2.933762 5.846934 -1.381689 2.127991 0.361829 13.665139 -29.020570 -0.176727 5.200745 -57.994033 -3.626854 9.873079 15.223048 -30.067487 -3.021053 1.255715 -4.677352 -12.762291 26.031430 3.574862 6.545170 56.147450 3.806485 13.771362 -12.642718 29.912546 1.870500 7.691792 6.698569 -14.854874 
-0.323584 0.264537 1.006050 -5.655250 -0.583612 80.844486 2.718544 -0.646650 -10.357190 -6.639227 3.034176 4.554833 -6.758357 6.142194 1.280949 0.000000 -0.000000 0.000000 3.106358 -3.576601 9.992035 0.795527 0.412965 16.075813 -2.697458 -6.782405 -25.097419 0.000000 -0.000000 0.000000 -0.530753 3.262821 5.737430 0.645339 -3.772369 4.098294 -0.460121 -1.000292 0.117416 2.888692 5.980088 -1.443273 2.339412 0.083493 13.484014 -29.238792 -0.679006 5.296705 -58.028004 -3.474090 9.863755 14.974031 -29.170237 -2.835071 1.160830 -4.720648 -12.298232 25.905480 3.769930 6.575639 56.083952 3.792430 13.502074 -12.634387 29.754494 2.178105 7.615948 6.684755 -15.257586 
-0.324390 0.287109 1.007356 -5.133683 -0.548244 80.432753 3.318739 -0.413028 -11.096166 -7.112434 2.319081 6.079268 -7.656362 6.155107 -1.685909 0.000000 -0.000000 0.000000 3.585296 -3.474667 9.012530 0.752224 0.284315 15.864950 -2.907790 -7.218253 -24.589715 0.000000 -0.000000 0.000000 -0.562156 3.073858 6.269626 0.759340 -3.947096 4.067558 -0.441213 -1.097012 0.217763 3.023253 5.930265 -1.580091 2.378037 -0.077176 13.558828 -29.423311 -1.057762 5.371592 -58.113724 -3.474918 9.804493 14.537714 -28.171921 -2.390523 1.218935 -4.723884 -11.829704 25.794192 3.806329 6.500158 56.053879 3.683558 13.324651 -12.586450 29.543722 2.437679 7.669854 6.676697 -15.550378 
-0.324322 0.308527 1.008962 -4.691231 -0.606150 80.009189 3.601724 -0.902470 -11.689943 -7.315959 1.973069 9.572569 -5.909635 6.636865 -6.987134 0.000000 -0.000000 0.000000 3.912879 -3.175943 8.076894 0.767329 0.331202 15.688719 -2.942177 -7.886307 -23.914923 0.000000 -0.000000 0.000000 -0.640952 2.946629 6.757630 0.841260 -4.019135 3.858164 -0.431055 -1.233514 0.494397 3.182763 5.599800 -1.672972 2.263528 0.043367 13.625531 -29.535610 -1.264798 5.502484 -58.355810 -3.648658 9.698986 14.140973 -27.185827 -1.842257 1.232036 -4.699513 -11.491526 25.652048 3.758558 6.381996 56.104472 3.468386 13.273887 -12.607358 29.312482 2.462371 7.699862 6.659470 -15.599473 
-0.324024 0.328622 1.010418 -4.424596 -0.697291 79.550270 3.737446 -1.773034 -12.045911 -6.921335 3.744176 14.720596 -3.866521 8.902534 -11.074979 0.000000 -0.000000 0.000000 4.281221 -2.491030 7.304995 0.706227 0.366509 15.467135 -3.128241 -8.742099 -23.211884 0.000000 -0.000000 0.000000 -0.750619 2.976102 7.198829 0.927890 -4.018146 3.637679 -0.427636 -1.358684 0.805552 3.234798 5.149702 -1.748669 2.240734 0.298498 13.642607 -29.427529 -1.388850 5.644556 -58.837271 -3.795882 9.627411 13.897941 -26.419216 -1.443021 1.139074 -4.596322 -11.359074 25.494828 3.687705 6.315771 56.218993 3.212775 13.371419 -12.688105 29.055446 2.404026 7.630085 6.544660 -15.726278 
